<svg xmlns="http://www.w3.org/2000/svg" xmlns:xlink="http://www.w3.org/1999/xlink" width="500" zoomAndPan="magnify" viewBox="0 0 375 374.999991" height="500" preserveAspectRatio="xMidYMid meet" version="1.0"><defs><clipPath id="7a226846a8"><path d="M 54 0 L 321 0 C 335.320312 0 349.058594 5.6875 359.183594 15.816406 C 369.3125 25.941406 375 39.679688 375 54 L 375 321 C 375 335.320312 369.3125 349.058594 359.183594 359.183594 C 349.058594 369.3125 335.320312 375 321 375 L 54 375 C 24.175781 375 0 350.824219 0 321 L 0 54 C 0 24.175781 24.175781 0 54 0 Z M 54 0 " clip-rule="nonzero"/></clipPath><clipPath id="5f86d91135"><path d="M 0 0 L 375 0 L 375 375 L 0 375 Z M 0 0 " clip-rule="nonzero"/></clipPath><clipPath id="9dce8ad927"><path d="M 54 0 L 321 0 C 335.320312 0 349.058594 5.6875 359.183594 15.816406 C 369.3125 25.941406 375 39.679688 375 54 L 375 321 C 375 335.320312 369.3125 349.058594 359.183594 359.183594 C 349.058594 369.3125 335.320312 375 321 375 L 54 375 C 24.175781 375 0 350.824219 0 321 L 0 54 C 0 24.175781 24.175781 0 54 0 Z M 54 0 " clip-rule="nonzero"/></clipPath><clipPath id="c101726c6c"><rect x="0" width="375" y="0" height="375"/></clipPath><clipPath id="3288047a58"><path d="M 56.507812 31.054688 L 277.023438 31.054688 L 277.023438 285.695312 L 56.507812 285.695312 Z M 56.507812 31.054688 " clip-rule="nonzero"/></clipPath><clipPath id="a7c02df376"><path d="M 56 33 L 170 33 L 170 222 L 56 222 Z M 56 33 " clip-rule="nonzero"/></clipPath><clipPath id="fd6e3d4df0"><path d="M 114.296875 0.0546875 L 224.636719 66.667969 L 111.183594 254.585938 L 0.847656 187.972656 Z M 114.296875 0.0546875 " clip-rule="nonzero"/></clipPath><clipPath id="a3897d5f1e"><path d="M 169.46875 33.359375 L 167.980469 160.515625 L 56.152344 221.054688 L 57.640625 93.902344 Z M 169.46875 33.359375 " clip-rule="nonzero"/></clipPath><clipPath id="239d33f2df"><path d="M 0 0.359375 L 113.519531 0.359375 L 113.519531 188.28125 L 0 188.28125 Z M 0 0.359375 " clip-rule="nonzero"/></clipPath><clipPath id="133a765c07"><path d="M 58.296875 -32.945312 L 168.636719 33.667969 L 55.183594 221.585938 L -55.152344 154.972656 Z M 58.296875 -32.945312 " clip-rule="nonzero"/></clipPath><clipPath id="7b9ff72b2f"><path d="M 113.46875 0.359375 L 111.980469 127.515625 L 0.152344 188.054688 L 1.640625 60.902344 Z M 113.46875 0.359375 " clip-rule="nonzero"/></clipPath><clipPath id="699e6ed856"><rect x="0" width="114" y="0" height="189"/></clipPath><clipPath id="5b3e696e50"><path d="M 163 92 L 276 92 L 276 284 L 163 284 Z M 163 92 " clip-rule="nonzero"/></clipPath><clipPath id="8047b4c67b"><path d="M 217.847656 60.625 L 330.011719 124.125 L 221.867188 315.148438 L 109.707031 251.652344 Z M 217.847656 60.625 " clip-rule="nonzero"/></clipPath><clipPath id="6ad757a49b"><path d="M 273.929688 92.375 L 275.996094 219.535156 L 165.898438 283.199219 L 163.832031 156.039062 Z M 273.929688 92.375 " clip-rule="nonzero"/></clipPath><clipPath id="6628a4f659"><path d="M 0.761719 0.160156 L 113 0.160156 L 113 191.199219 L 0.761719 191.199219 Z M 0.761719 0.160156 " clip-rule="nonzero"/></clipPath><clipPath id="f05015f02d"><path d="M 54.847656 -31.375 L 167.011719 32.125 L 58.867188 223.148438 L -53.292969 159.652344 Z M 54.847656 -31.375 " clip-rule="nonzero"/></clipPath><clipPath id="619e0fc6c6"><path d="M 110.929688 0.375 L 112.996094 127.535156 L 2.898438 191.199219 L 0.832031 64.039062 Z M 110.929688 0.375 " clip-rule="nonzero"/></clipPath><clipPath id="76cc181b39"><rect x="0" width="113" y="0" height="192"/></clipPath><clipPath id="89e9964c86"><rect x="0" width="331" y="0" height="316"/></clipPath></defs><g clip-path="url(#7a226846a8)"><g transform="matrix(1, 0, 0, 1, 0, 0)"><g clip-path="url(#c101726c6c)"><g clip-path="url(#5f86d91135)"><g clip-path="url(#9dce8ad927)"><rect x="-82.5" width="540" fill="#000000" height="539.999987" y="-82.499998" fill-opacity="1"/></g></g></g></g></g><g transform="matrix(1, 0, 0, 1, 22, 30)"><g clip-path="url(#89e9964c86)"><g clip-path="url(#3288047a58)"><path fill="#ffffff" d="M 273.105469 99.976562 L 273.105469 219.089844 L 169.363281 278.984375 L 169.363281 159.90625 L 191.710938 146.96875 Z M 189.34375 143.125 L 167.171875 155.925781 L 157.679688 150.453125 L 63.707031 96.101562 L 166.925781 36.046875 L 270.757812 95.996094 Z M 61.210938 100.042969 L 155.855469 154.613281 L 164.757812 159.765625 L 164.757812 278.878906 L 61.023438 218.984375 Z M 276.871094 94.410156 C 276.730469 94.265625 276.570312 94.140625 276.394531 94.039062 L 168.050781 31.484375 C 167.351562 31.082031 166.484375 31.082031 165.789062 31.488281 L 58.816406 93.726562 C 58.476562 93.75 58.140625 93.832031 57.835938 94.007812 C 57.140625 94.410156 56.707031 95.15625 56.707031 95.960938 L 56.507812 220.285156 C 56.507812 221.089844 56.9375 221.839844 57.636719 222.242188 L 165.324219 284.414062 C 165.488281 284.601562 165.667969 284.773438 165.890625 284.898438 C 166.230469 285.097656 166.621094 285.203125 167.015625 285.203125 C 167.410156 285.203125 167.800781 285.097656 168.144531 284.898438 L 276.488281 222.347656 C 277.183594 221.945312 277.617188 221.195312 277.617188 220.390625 L 277.617188 96.070312 C 277.617188 95.429688 277.335938 94.832031 276.871094 94.410156 " fill-opacity="1" fill-rule="nonzero"/></g><g clip-path="url(#a7c02df376)"><g clip-path="url(#fd6e3d4df0)"><g clip-path="url(#a3897d5f1e)"><g transform="matrix(1, 0, 0, 1, 56, 33)"><g clip-path="url(#699e6ed856)"><g clip-path="url(#239d33f2df)"><g clip-path="url(#133a765c07)"><g clip-path="url(#7b9ff72b2f)"><path fill="#ffffff" d="M 58.296875 -32.945312 L 168.636719 33.667969 L 55.445312 221.15625 L -54.894531 154.542969 Z M 58.296875 -32.945312 " fill-opacity="1" fill-rule="nonzero"/></g></g></g></g></g></g></g></g><g clip-path="url(#5b3e696e50)"><g clip-path="url(#8047b4c67b)"><g clip-path="url(#6ad757a49b)"><g transform="matrix(1, 0, 0, 1, 163, 92)"><g clip-path="url(#76cc181b39)"><g clip-path="url(#6628a4f659)"><g clip-path="url(#f05015f02d)"><g clip-path="url(#619e0fc6c6)"><path fill="#ffffff" d="M 54.847656 -31.375 L 167.011719 32.125 L 58.867188 223.148438 L -53.292969 159.652344 Z M 54.847656 -31.375 " fill-opacity="1" fill-rule="nonzero"/></g></g></g></g></g></g></g></g></g></g></svg>