<svg xmlns="http://www.w3.org/2000/svg" xmlns:xlink="http://www.w3.org/1999/xlink" width="500" zoomAndPan="magnify" viewBox="0 0 375 374.999991" height="500" preserveAspectRatio="xMidYMid meet" version="1.0"><defs><clipPath id="d6e3e3b436"><path d="M 56.507812 31.054688 L 277.023438 31.054688 L 277.023438 285.695312 L 56.507812 285.695312 Z M 56.507812 31.054688 " clip-rule="nonzero"/></clipPath><clipPath id="7674bc5762"><path d="M 56 33 L 170 33 L 170 222 L 56 222 Z M 56 33 " clip-rule="nonzero"/></clipPath><clipPath id="8586cf7d77"><path d="M 114.296875 0.0546875 L 224.636719 66.667969 L 111.183594 254.585938 L 0.847656 187.972656 Z M 114.296875 0.0546875 " clip-rule="nonzero"/></clipPath><clipPath id="cdbd49b66c"><path d="M 169.46875 33.359375 L 167.980469 160.515625 L 56.152344 221.054688 L 57.640625 93.902344 Z M 169.46875 33.359375 " clip-rule="nonzero"/></clipPath><clipPath id="e252b47a59"><path d="M 0 0.359375 L 113.519531 0.359375 L 113.519531 188.28125 L 0 188.28125 Z M 0 0.359375 " clip-rule="nonzero"/></clipPath><clipPath id="dc0e04b53d"><path d="M 58.296875 -32.945312 L 168.636719 33.667969 L 55.183594 221.585938 L -55.152344 154.972656 Z M 58.296875 -32.945312 " clip-rule="nonzero"/></clipPath><clipPath id="a1d40d46ba"><path d="M 113.46875 0.359375 L 111.980469 127.515625 L 0.152344 188.054688 L 1.640625 60.902344 Z M 113.46875 0.359375 " clip-rule="nonzero"/></clipPath><clipPath id="892a5ef17c"><rect x="0" width="114" y="0" height="189"/></clipPath><clipPath id="3cd40f6525"><path d="M 163 92 L 276 92 L 276 284 L 163 284 Z M 163 92 " clip-rule="nonzero"/></clipPath><clipPath id="749d357356"><path d="M 217.847656 60.625 L 330.011719 124.125 L 221.867188 315.148438 L 109.707031 251.652344 Z M 217.847656 60.625 " clip-rule="nonzero"/></clipPath><clipPath id="e89dde8667"><path d="M 273.929688 92.375 L 275.996094 219.535156 L 165.898438 283.199219 L 163.832031 156.039062 Z M 273.929688 92.375 " clip-rule="nonzero"/></clipPath><clipPath id="23dd86af37"><path d="M 0.761719 0.160156 L 113 0.160156 L 113 191.199219 L 0.761719 191.199219 Z M 0.761719 0.160156 " clip-rule="nonzero"/></clipPath><clipPath id="8dcfc3fc8b"><path d="M 54.847656 -31.375 L 167.011719 32.125 L 58.867188 223.148438 L -53.292969 159.652344 Z M 54.847656 -31.375 " clip-rule="nonzero"/></clipPath><clipPath id="03ab26f5ca"><path d="M 110.929688 0.375 L 112.996094 127.535156 L 2.898438 191.199219 L 0.832031 64.039062 Z M 110.929688 0.375 " clip-rule="nonzero"/></clipPath><clipPath id="9c62ef7cf4"><rect x="0" width="113" y="0" height="192"/></clipPath><clipPath id="2f8916c1f0"><rect x="0" width="331" y="0" height="316"/></clipPath></defs><g transform="matrix(1, 0, 0, 1, 22, 30)"><g clip-path="url(#2f8916c1f0)"><g clip-path="url(#d6e3e3b436)"><path fill="#ffffff" d="M 273.105469 99.976562 L 273.105469 219.089844 L 169.363281 278.984375 L 169.363281 159.90625 L 191.710938 146.96875 Z M 189.34375 143.125 L 167.171875 155.925781 L 157.679688 150.453125 L 63.707031 96.101562 L 166.925781 36.046875 L 270.757812 95.996094 Z M 61.210938 100.042969 L 155.855469 154.613281 L 164.757812 159.765625 L 164.757812 278.878906 L 61.023438 218.984375 Z M 276.871094 94.410156 C 276.730469 94.265625 276.570312 94.140625 276.394531 94.039062 L 168.050781 31.484375 C 167.351562 31.082031 166.484375 31.082031 165.789062 31.488281 L 58.816406 93.726562 C 58.476562 93.75 58.140625 93.832031 57.835938 94.007812 C 57.140625 94.410156 56.707031 95.15625 56.707031 95.960938 L 56.507812 220.285156 C 56.507812 221.089844 56.9375 221.839844 57.636719 222.242188 L 165.324219 284.414062 C 165.488281 284.601562 165.667969 284.773438 165.890625 284.898438 C 166.230469 285.097656 166.621094 285.203125 167.015625 285.203125 C 167.410156 285.203125 167.800781 285.097656 168.144531 284.898438 L 276.488281 222.347656 C 277.183594 221.945312 277.617188 221.195312 277.617188 220.390625 L 277.617188 96.070312 C 277.617188 95.429688 277.335938 94.832031 276.871094 94.410156 " fill-opacity="1" fill-rule="nonzero"/></g><g clip-path="url(#7674bc5762)"><g clip-path="url(#8586cf7d77)"><g clip-path="url(#cdbd49b66c)"><g transform="matrix(1, 0, 0, 1, 56, 33)"><g clip-path="url(#892a5ef17c)"><g clip-path="url(#e252b47a59)"><g clip-path="url(#dc0e04b53d)"><g clip-path="url(#a1d40d46ba)"><path fill="#ffffff" d="M 58.296875 -32.945312 L 168.636719 33.667969 L 55.445312 221.15625 L -54.894531 154.542969 Z M 58.296875 -32.945312 " fill-opacity="1" fill-rule="nonzero"/></g></g></g></g></g></g></g></g><g clip-path="url(#3cd40f6525)"><g clip-path="url(#749d357356)"><g clip-path="url(#e89dde8667)"><g transform="matrix(1, 0, 0, 1, 163, 92)"><g clip-path="url(#9c62ef7cf4)"><g clip-path="url(#23dd86af37)"><g clip-path="url(#8dcfc3fc8b)"><g clip-path="url(#03ab26f5ca)"><path fill="#ffffff" d="M 54.847656 -31.375 L 167.011719 32.125 L 58.867188 223.148438 L -53.292969 159.652344 Z M 54.847656 -31.375 " fill-opacity="1" fill-rule="nonzero"/></g></g></g></g></g></g></g></g></g></g></svg>