<svg xmlns="http://www.w3.org/2000/svg" xmlns:xlink="http://www.w3.org/1999/xlink" width="500" zoomAndPan="magnify" viewBox="0 0 375 374.999991" height="500" preserveAspectRatio="xMidYMid meet" version="1.0"><defs><clipPath id="f15620a039"><path d="M 43 24 L 193 24 L 193 271 L 43 271 Z M 43 24 " clip-rule="nonzero"/></clipPath><clipPath id="cf2cd1868f"><path d="M 120.230469 -19.363281 L 265.199219 68.15625 L 116.136719 315.058594 L -28.832031 227.539062 Z M 120.230469 -19.363281 " clip-rule="nonzero"/></clipPath><clipPath id="43c482e193"><path d="M 192.714844 24.394531 L 190.757812 191.460938 L 43.832031 271 L 45.789062 103.9375 Z M 192.714844 24.394531 " clip-rule="nonzero"/></clipPath><clipPath id="745b0853e7"><path d="M 0.679688 0.238281 L 149.71875 0.238281 L 149.71875 247 L 0.679688 247 Z M 0.679688 0.238281 " clip-rule="nonzero"/></clipPath><clipPath id="182d112d78"><path d="M 77.230469 -43.363281 L 222.199219 44.15625 L 73.136719 291.058594 L -71.832031 203.539062 Z M 77.230469 -43.363281 " clip-rule="nonzero"/></clipPath><clipPath id="9c8a74307d"><path d="M 149.714844 0.394531 L 147.757812 167.460938 L 0.832031 247 L 2.789062 79.9375 Z M 149.714844 0.394531 " clip-rule="nonzero"/></clipPath><clipPath id="c8305c5616"><rect x="0" width="150" y="0" height="247"/></clipPath><clipPath id="c29bc65cb2"><path d="M 185 101 L 333 101 L 333 353 L 185 353 Z M 185 101 " clip-rule="nonzero"/></clipPath><clipPath id="2251820c7f"><path d="M 256.285156 60.222656 L 403.648438 143.648438 L 261.5625 394.628906 L 114.199219 311.203125 Z M 256.285156 60.222656 " clip-rule="nonzero"/></clipPath><clipPath id="14b8d29256"><path d="M 329.96875 101.933594 L 332.679688 269.007812 L 188.03125 352.652344 L 185.316406 185.582031 Z M 329.96875 101.933594 " clip-rule="nonzero"/></clipPath><clipPath id="3aea6200b9"><path d="M 0.28125 0.761719 L 147.878906 0.761719 L 147.878906 251.800781 L 0.28125 251.800781 Z M 0.28125 0.761719 " clip-rule="nonzero"/></clipPath><clipPath id="e096d0a1cd"><path d="M 71.285156 -40.777344 L 218.648438 42.648438 L 76.5625 293.628906 L -70.800781 210.203125 Z M 71.285156 -40.777344 " clip-rule="nonzero"/></clipPath><clipPath id="f877818160"><path d="M 144.96875 0.933594 L 147.679688 168.007812 L 3.03125 251.652344 L 0.316406 84.582031 Z M 144.96875 0.933594 " clip-rule="nonzero"/></clipPath><clipPath id="6041441cfe"><rect x="0" width="148" y="0" height="252"/></clipPath></defs><g clip-path="url(#f15620a039)"><g clip-path="url(#cf2cd1868f)"><g clip-path="url(#43c482e193)"><g transform="matrix(1, 0, 0, 1, 43, 24)"><g clip-path="url(#c8305c5616)"><g clip-path="url(#745b0853e7)"><g clip-path="url(#182d112d78)"><g clip-path="url(#9c8a74307d)"><path fill="#ffffff" d="M 77.230469 -43.363281 L 222.199219 44.15625 L 73.480469 290.492188 L -71.488281 202.972656 Z M 77.230469 -43.363281 " fill-opacity="1" fill-rule="nonzero"/></g></g></g></g></g></g></g></g><g clip-path="url(#c29bc65cb2)"><g clip-path="url(#2251820c7f)"><g clip-path="url(#14b8d29256)"><g transform="matrix(1, 0, 0, 1, 185, 101)"><g clip-path="url(#6041441cfe)"><g clip-path="url(#3aea6200b9)"><g clip-path="url(#e096d0a1cd)"><g clip-path="url(#f877818160)"><path fill="#ffffff" d="M 71.285156 -40.777344 L 218.648438 42.648438 L 76.5625 293.628906 L -70.800781 210.203125 Z M 71.285156 -40.777344 " fill-opacity="1" fill-rule="nonzero"/></g></g></g></g></g></g></g></g></svg>